<?xml version="1.0" standalone="no"?>
<!DOCTYPE svg PUBLIC "-//W3C//DTD SVG 20010904//EN"
 "http://www.w3.org/TR/2001/REC-SVG-20010904/DTD/svg10.dtd">
<svg version="1.0" xmlns="http://www.w3.org/2000/svg"
 width="225.000000pt" height="225.000000pt" viewBox="0 0 225.000000 225.000000"
 preserveAspectRatio="xMidYMid meet">

<g transform="translate(0.000000,225.000000) scale(0.100000,-0.100000)"
fill="#000000" stroke="none">
<path d="M0 1125 l0 -1125 1125 0 1125 0 0 1125 0 1125 -1125 0 -1125 0 0
-1125z m1338 394 c-28 -21 -68 -78 -68 -98 0 -6 16 -11 38 -11 53 0 185 -25
267 -50 122 -38 303 -145 370 -220 l20 -22 -40 17 c-75 33 -160 56 -225 62
l-65 6 63 -68 c34 -37 62 -71 62 -76 0 -4 -24 3 -52 16 -58 27 -175 48 -235
43 l-38 -3 42 -30 c24 -16 43 -35 43 -41 0 -6 -23 -14 -51 -18 -66 -9 -162
-53 -216 -98 l-42 -36 -88 5 c-149 8 -271 -32 -416 -138 -37 -27 -74 -49 -82
-49 -17 0 -82 55 -96 83 -8 14 -8 22 0 27 8 5 7 15 -4 36 -8 16 -15 49 -15 74
l1 45 17 -27 c17 -28 32 -36 32 -18 0 6 5 10 10 10 6 0 10 -7 10 -16 0 -10 7
-14 23 -12 18 2 22 9 20 36 -3 73 -31 119 -107 173 -50 37 -69 38 -56 4 10
-27 2 -32 -19 -12 -11 10 -13 6 -8 -23 4 -19 9 -46 13 -60 l8 -25 -35 26 c-19
14 -45 48 -59 75 -14 27 -27 50 -30 52 -3 1 -4 20 -2 43 3 32 -1 46 -19 65
-12 13 -20 24 -16 24 32 0 444 128 484 151 54 30 171 72 232 83 29 5 32 4 21
-9 -20 -25 -5 -28 47 -11 71 23 139 34 218 35 l70 0 -27 -20z"/>
<path d="M1102 1485 c-34 -8 -77 -21 -94 -29 -37 -19 -44 -15 -28 14 11 20 10
21 -27 14 -46 -8 -133 -46 -173 -74 -16 -11 -120 -47 -232 -79 -112 -33 -202
-63 -202 -67 1 -5 4 -30 7 -56 5 -36 49 -148 60 -148 1 0 0 27 -1 61 -2 34 0
65 5 70 10 10 75 -19 129 -59 73 -53 112 -164 84 -237 -14 -36 -37 -42 -66
-15 l-24 23 0 -26 c0 -14 5 -29 10 -32 6 -3 10 -17 10 -30 0 -15 11 -32 30
-45 l31 -22 55 42 c73 55 193 114 274 135 36 10 108 18 160 19 86 1 99 4 130
28 50 37 77 50 145 68 l59 17 -41 27 c-23 15 -60 30 -82 33 -98 13 -4 46 131
46 54 0 95 3 93 7 -8 13 -90 58 -118 65 -37 10 -34 23 8 31 39 7 195 0 235
-11 25 -6 25 -6 5 10 -62 53 -240 108 -387 121 -43 4 -78 11 -78 16 0 15 21
51 43 76 l20 22 -54 -1 c-30 0 -82 -7 -117 -14z m-182 -110 c0 -2 -13 -11 -30
-20 -16 -8 -45 -29 -64 -46 -29 -25 -39 -28 -55 -20 -11 6 -29 11 -41 11 -29
0 -17 16 32 41 49 25 158 49 158 34z"/>
</g>
</svg>
